# xmcd
#
# Track frame offsets: 
#        150
#        23334
#        48559
#        80185
#        105924
#        127418
#        148116
#        173112
#        211709
#        259368
#
# Disc length: 3777 seconds
#
# Revision: 1
# Processed by: cddbd v1.5.1PL0 Copyright (c) Steve Scherf et al.
# Submitted via: ExactAudioCopy v0.95a3
#
DISCID=8c0ebf0a
DTITLE=Danny Gatton - Funhouse
DYEAR=1988
DGENRE=Jazz
TTITLE0=Blues On The Half Shell
TTITLE1=Mamasita
TTITLE2=Off The Top
TTITLE3=A Train
TTITLE4=Song Of India
TTITLE5=Smoke And Mirrors
TTITLE6=Pretty Blue
TTITLE7=Red Label
TTITLE8=Well You Needn't - Rock Candy
TTITLE9=Melancholy Serenade
EXTD=YEAR: 2004
EXTT0=
EXTT1=
EXTT2=
EXTT3=
EXTT4=
EXTT5=
EXTT6=
EXTT7=
EXTT8=
EXTT9=
PLAYORDER=
